<svg width="94" height="90" viewBox="0 0 94 90" fill="none" xmlns="http://www.w3.org/2000/svg">
<path d="M81.4675 6.76626C82.9968 6.76626 84.4635 7.37377 85.5448 8.45516C86.6262 9.53654 87.2337 11.0032 87.2337 12.5325V58.6626C87.2337 60.1919 86.6262 61.6586 85.5448 62.7399C84.4635 63.8213 82.9968 64.4288 81.4675 64.4288H26.1921C23.1338 64.4295 20.2009 65.645 18.0386 67.8079L6.50612 79.3404V12.5325C6.50612 11.0032 7.11363 9.53654 8.19501 8.45516C9.27641 7.37377 10.7431 6.76626 12.2724 6.76626H81.4675ZM12.2724 1C9.21376 1 6.28043 2.21503 4.11766 4.3778C1.9549 6.54056 0.739861 9.4739 0.739861 12.5325V86.3003C0.739983 86.8708 0.909348 87.4284 1.22652 87.9026C1.54369 88.3768 1.99441 88.7462 2.52163 88.9641C3.04885 89.1821 3.62888 89.2387 4.18829 89.1268C4.7477 89.015 5.26136 88.7397 5.66425 88.3358L22.1154 71.8846C23.1965 70.8032 24.6629 70.1954 26.1921 70.1951H81.4675C84.5261 70.1951 87.4594 68.9801 89.6222 66.8173C91.785 64.6545 93 61.7212 93 58.6626V12.5325C93 9.4739 91.785 6.54056 89.6222 4.3778C87.4594 2.21503 84.5261 1 81.4675 1L12.2724 1Z" fill="#00354F" stroke="#00354F" stroke-width="0.5"/>
<path d="M75.7012 21.182C75.7012 20.4173 75.3974 19.684 74.8567 19.1433C74.316 18.6026 73.5827 18.2988 72.818 18.2988H20.9217C20.1571 18.2988 19.4237 18.6026 18.883 19.1433C18.3423 19.684 18.0386 20.4173 18.0386 21.182C18.0386 21.9466 18.3423 22.6799 18.883 23.2206C19.4237 23.7613 20.1571 24.0651 20.9217 24.0651H72.818C73.5827 24.0651 74.316 23.7613 74.8567 23.2206C75.3974 22.6799 75.7012 21.9466 75.7012 21.182ZM75.7012 35.5976C75.7012 34.833 75.3974 34.0996 74.8567 33.5589C74.316 33.0182 73.5827 32.7145 72.818 32.7145H20.9217C20.1571 32.7145 19.4237 33.0182 18.883 33.5589C18.3423 34.0996 18.0386 34.833 18.0386 35.5976C18.0386 36.3623 18.3423 37.0956 18.883 37.6363C19.4237 38.177 20.1571 38.4807 20.9217 38.4807H72.818C73.5827 38.4807 74.316 38.177 74.8567 37.6363C75.3974 37.0956 75.7012 36.3623 75.7012 35.5976ZM75.7012 50.0133C75.7012 49.2486 75.3974 48.5153 74.8567 47.9746C74.316 47.4339 73.5827 47.1301 72.818 47.1301H43.9867C43.2221 47.1301 42.4888 47.4339 41.9481 47.9746C41.4074 48.5153 41.1036 49.2486 41.1036 50.0133C41.1036 50.7779 41.4074 51.5112 41.9481 52.0519C42.4888 52.5926 43.2221 52.8964 43.9867 52.8964H72.818C73.5827 52.8964 74.316 52.5926 74.8567 52.0519C75.3974 51.5112 75.7012 50.7779 75.7012 50.0133Z" fill="#00354F" stroke="#00354F" stroke-width="0.5"/>
</svg>
