<svg width="17" height="17" viewBox="0 0 17 17" fill="none" xmlns="http://www.w3.org/2000/svg">
<path fill-rule="evenodd" clip-rule="evenodd" d="M0.722168 2.0501C0.722168 1.69804 0.862024 1.3604 1.11097 1.11146C1.35991 0.862513 1.69755 0.722658 2.04961 0.722658H15.2822C15.4566 0.722373 15.6295 0.756503 15.7907 0.823095C15.952 0.889687 16.0985 0.987432 16.222 1.11073C16.3454 1.23404 16.4433 1.38048 16.5101 1.54167C16.5768 1.70286 16.6112 1.87563 16.6111 2.0501V15.2827C16.6112 15.4572 16.577 15.63 16.5104 15.7913C16.4437 15.9525 16.3459 16.0991 16.2225 16.2225C16.0992 16.3459 15.9527 16.4438 15.7914 16.5106C15.6302 16.5773 15.4574 16.6116 15.2829 16.6115H2.04961C1.87523 16.6115 1.70255 16.5772 1.54145 16.5104C1.38035 16.4437 1.23399 16.3458 1.11071 16.2225C0.987438 16.0992 0.889674 15.9527 0.823007 15.7916C0.756339 15.6305 0.722073 15.4578 0.722168 15.2834V2.0501ZM7.01128 6.78066H9.16278V7.8611C9.47333 7.23999 10.2678 6.68099 11.4616 6.68099C13.7503 6.68099 14.2927 7.91816 14.2927 10.1881V14.3929H11.9766V10.7052C11.9766 9.41244 11.666 8.68299 10.8773 8.68299C9.78317 8.68299 9.32817 9.46949 9.32817 10.7052V14.3929H7.01128V6.78066ZM3.03906 14.2939H5.35595V6.68099H3.03906V14.2939ZM5.68745 4.19799C5.69181 4.39637 5.65651 4.59362 5.58362 4.77816C5.51072 4.96271 5.4017 5.13084 5.26295 5.27268C5.12419 5.41452 4.95851 5.52722 4.77561 5.60416C4.59271 5.6811 4.39629 5.72074 4.19786 5.72074C3.99944 5.72074 3.80302 5.6811 3.62012 5.60416C3.43722 5.52722 3.27153 5.41452 3.13278 5.27268C2.99403 5.13084 2.885 4.96271 2.81211 4.77816C2.73921 4.59362 2.70391 4.39637 2.70828 4.19799C2.71685 3.80861 2.87756 3.43806 3.15597 3.16571C3.43439 2.89336 3.80839 2.74085 4.19786 2.74085C4.58734 2.74085 4.96133 2.89336 5.23975 3.16571C5.51817 3.43806 5.67887 3.80861 5.68745 4.19799Z" fill="black"/>
</svg>
