<svg width="19" height="18" viewBox="0 0 19 18" fill="none" xmlns="http://www.w3.org/2000/svg">
<path d="M9.51099 0.324219C4.45321 0.324219 0.353027 4.2086 0.353027 9.00018C0.353027 10.5306 0.786947 11.9603 1.50546 13.2168C2.42369 14.8226 5.96734 8.66975 7.85729 10.0107C9.74723 11.3516 3.36868 15.7178 5.14092 16.6125C6.4491 17.2728 7.92546 17.6761 9.51099 17.6761C14.5688 17.6761 18.669 13.7918 18.669 9.00018C18.669 4.20856 14.5688 0.324219 9.51099 0.324219Z" fill="#E5AA6E"/>
<path d="M10.1985 15.8755C9.30172 15.8755 8.57471 15.2581 8.57471 14.4964C8.57471 13.7347 9.30172 13.1172 10.1985 13.1172C11.0954 13.1172 11.8224 13.7347 11.8224 14.4964C11.8224 15.2581 11.0954 15.8755 10.1985 15.8755Z" fill="white"/>
<path d="M16.178 10.5211C16.6496 11.2074 16.4003 12.1532 15.6212 12.6337C14.8422 13.1142 13.8283 12.9474 13.3567 12.2611C12.8851 11.5748 13.1344 10.6289 13.9135 10.1485C14.6925 9.66794 15.7064 9.83479 16.178 10.5211Z" fill="#FFD469"/>
<path d="M16.4465 5.59366C16.5058 6.41062 15.802 7.12187 14.8746 7.1823C13.9472 7.24274 13.1473 6.62944 13.088 5.81248C13.0287 4.99552 13.7324 4.28427 14.6598 4.22384C15.5873 4.1634 16.3872 4.7767 16.4465 5.59366Z" fill="#0074A8"/>
<path d="M10.6807 3.52768C10.74 4.34464 9.87839 5.06619 8.75627 5.13928C7.63416 5.21237 6.67645 4.60937 6.61714 3.7924C6.55784 2.97544 7.41941 2.2539 8.54152 2.18081C9.66363 2.10772 10.6214 2.71072 10.6807 3.52768Z" fill="#FF473E"/>
<path d="M5.78241 7.07706C5.84171 7.89402 5.13797 8.60527 4.21053 8.6657C3.28309 8.72614 2.4832 8.11284 2.4239 7.29588C2.3646 6.47891 3.06834 5.76767 3.99578 5.70723C4.92322 5.6468 5.72311 6.2601 5.78241 7.07706Z" fill="#009B51"/>
</svg>
