<svg width="17" height="15" viewBox="0 0 17 15" fill="none" xmlns="http://www.w3.org/2000/svg">
<path d="M16.409 2.56569C15.806 2.83292 15.1581 3.01347 14.4771 3.09508C15.1798 2.6746 15.7056 2.01281 15.9562 1.23319C15.296 1.62535 14.5734 1.90139 13.8199 2.04931C13.3131 1.50826 12.642 1.14965 11.9105 1.02915C11.1791 0.908643 10.4284 1.03299 9.77487 1.38288C9.12136 1.73277 8.60165 2.28862 8.29642 2.96415C7.9912 3.63967 7.91753 4.39707 8.08687 5.11875C6.74908 5.05158 5.44038 4.70387 4.24567 4.09818C3.05097 3.49249 1.99697 2.64237 1.15209 1.60297C0.863198 2.10131 0.697087 2.67908 0.697087 3.29442C0.696765 3.84836 0.833178 4.39381 1.09422 4.88239C1.35527 5.37097 1.73287 5.78755 2.19353 6.09519C1.65929 6.07819 1.13683 5.93384 0.669643 5.67414V5.71747C0.669589 6.4944 0.938333 7.24741 1.43028 7.84875C1.92222 8.45008 2.60706 8.8627 3.36859 9.01658C2.87299 9.15071 2.35339 9.17047 1.84903 9.07436C2.06389 9.74286 2.48242 10.3274 3.04602 10.7463C3.60962 11.1651 4.29008 11.3972 4.99214 11.41C3.80036 12.3456 2.32851 12.8531 0.813365 12.8509C0.544974 12.8509 0.276809 12.8353 0.0102539 12.8039C1.54821 13.7928 3.3385 14.3176 5.16692 14.3155C11.3564 14.3155 14.74 9.18919 14.74 4.74319C14.74 4.59875 14.7364 4.45286 14.7299 4.30842C15.388 3.83245 15.9561 3.24306 16.4076 2.56786L16.409 2.56569Z" fill="black"/>
</svg>
