<svg width="25" height="25" viewBox="0 0 25 25" fill="none" xmlns="http://www.w3.org/2000/svg">
<path d="M12.3331 22.6115C17.8253 22.6115 22.2776 18.1593 22.2776 12.6671C22.2776 7.17493 17.8253 2.72266 12.3331 2.72266C6.84095 2.72266 2.38867 7.17493 2.38867 12.6671C2.38867 18.1593 6.84095 22.6115 12.3331 22.6115Z" stroke="black" stroke-width="4" stroke-linecap="round" stroke-linejoin="round"/>
<path d="M4.38867 10.667C3.2841 10.667 2.38867 11.5624 2.38867 12.667C2.38867 13.7716 3.2841 14.667 4.38867 14.667H20.2776C21.3821 14.667 22.2776 13.7716 22.2776 12.667C22.2776 11.5624 21.3821 10.667 20.2776 10.667H4.38867Z" stroke="black" stroke-width="4" stroke-linecap="round" stroke-linejoin="round"/>
<path d="M12.3331 22.6115C13.4989 22.6115 14.4073 22.0126 15.0231 21.3614C15.6349 20.7145 16.0937 19.8857 16.437 19.0275C17.1281 17.2998 17.5108 15.0502 17.5108 12.6671C17.5108 10.284 17.1281 8.03441 16.437 6.30675C16.0937 5.44847 15.6349 4.61968 15.0231 3.97275C14.4073 3.3216 13.4989 2.72266 12.3331 2.72266C11.1672 2.72266 10.2588 3.3216 9.643 3.97275C9.0312 4.61968 8.57238 5.44847 8.22907 6.30675C7.538 8.03441 7.15527 10.284 7.15527 12.6671C7.15527 15.0502 7.538 17.2998 8.22907 19.0275C8.57238 19.8857 9.0312 20.7145 9.643 21.3614C10.2588 22.0126 11.1672 22.6115 12.3331 22.6115Z" stroke="black" stroke-width="4" stroke-linecap="round" stroke-linejoin="round"/>
</svg>
