<svg width="27" height="27" viewBox="0 0 27 27" fill="none" xmlns="http://www.w3.org/2000/svg">
<path d="M13.8975 4.125L10.4445 10.0762L3.5625 11.079L8.54437 15.9315L7.37137 22.7865L13.8975 19.6875V4.125Z" fill="black"/>
<path d="M13.125 4.3125L16.743 10.2638L23.625 11.2665L18.6431 16.119L19.8161 22.974L13.125 19.6875V4.3125Z" fill="#FCEA2B"/>
<path d="M13.8975 4.125L10.4445 10.0762L3.5625 11.079L8.54437 15.9315L7.37137 22.7865L13.8975 19.6875V4.125Z" fill="#3F3F3F"/>
<path d="M13.4974 4.02637L10.4213 10.2641L3.54004 11.2669L8.52191 16.1194L7.34891 22.9744L13.5034 19.7359L19.6605 22.9695L18.4823 16.1156L23.4608 11.2594L16.578 10.2619L13.4974 4.02637Z" stroke="black" stroke-width="2" stroke-miterlimit="10" stroke-linecap="round" stroke-linejoin="round"/>
<path d="M13.5 4.5V18.375Z" fill="black"/>
<path d="M13.5 4.5V18.375" stroke="black" stroke-width="2" stroke-linecap="round"/>
</svg>
